{"title":"The.Ides.of.March.2011.720p.BRRip.x264.aac.mp4.anoXmous","uid":6895287,"size":733724532,"categoryP":"video","categoryS":"hd___movies","magnet":"?xt=urn:btih:ada5ae0f09f171ed9d0b2a96245bba37e7903825&amp;dn=The.Ides.of.March.2011.720p.BRRip.x264.aac.mp4.anoXmous&amp;tr=udp%3A%2F%2Ftracker.openbittorrent.com%3A80&amp;tr=udp%3A%2F%2Fopen.demonii.com%3A1337&amp;tr=udp%3A%2F%2Ftracker.coppersurfer.tk%3A6969&amp;tr=udp%3A%2F%2Fexodus.desync.com%3A6969","seeders":0,"leechers":0,"uploader":"anoXmous","files":-1,"time":1324172720,"description":"The.Ides.of.March.2011.720p.BRRip.x264.aac.mp4.anoXmous\n\nFormat                           : MPEG-4\nFormat profile                   : Base Media\nCodec ID                         : isom\nFile size                        : 700 MiB\nDuration                         : 1h 41mn\nOverall bit rate mode            : Variable\nOverall bit rate                 : 967 Kbps\n\n\nVideo\nID                               : 1\nFormat                           : AVC\nFormat/Info                      : Advanced Video Codec\nFormat profile                   : &lt;a class=&quot;__cf_email__&quot; href=&quot;/cdn-cgi/l/email-protection&quot; data-cfemail=&quot;d29abbb5ba929ee6fce3&quot;&gt;[email&amp;#160;protected]&lt;/a&gt;&lt;script cf-hash='f9e31' type=&quot;text/javascript&quot;&gt;\n/* &lt;![CDATA[ */!function(){try{var t=&quot;currentScript&quot;in document?document.currentScript:function(){for(var t=document.getElementsByTagName(&quot;script&quot;),e=t.length;e--;)if(t[e].getAttribute(&quot;cf-hash&quot;))return t[e]}();if(t&amp;&amp;t.previousSibling){var e,r,n,i,c=t.previousSibling,a=c.getAttribute(&quot;data-cfemail&quot;);if(a){for(e=&quot;&quot;,r=parseInt(a.substr(0,2),16),n=2;a.length-n;n+=2)i=parseInt(a.substr(n,2),16)^r,e+=String.fromCharCode(i);e=document.createTextNode(e),c.parentNode.replaceChild(e,c)}}}catch(u){}}();/* ]]&gt; */&lt;/script&gt;\nFormat settings, CABAC           : Yes\nFormat settings, ReFrames        : 4 frames\nCodec ID                         : avc1\nCodec ID/Info                    : Advanced Video Coding\nDuration                         : 1h 41mn\nBit rate                         : 900 Kbps\nMaximum bit rate                 : 6 388 Kbps\nWidth                            : 1 280 pixels\nHeight                           : 528 pixels\nDisplay aspect ratio             : 2.40:1\nOriginal display aspect ratio    : 2.40:1\nFrame rate mode                  : Constant\nFrame rate                       : 23.976 fps\nColor space                      : YUV\nChroma subsampling               : 4:2:0\nBit depth                        : 8 bits\nScan type                        : Progressive\nBits/(Pixel*Frame)               : 0.056\nStream size                      : 651 MiB (93%)\nWriting library                  : x264 core 120 r2120 0c7dab9\n\nAudio\nID                               : 2\nFormat                           : AAC\nFormat/Info                      : Advanced Audio Codec\nFormat profile                   : LC\nCodec ID                         : 40\nDuration                         : 1h 41mn\nBit rate mode                    : Variable\nBit rate                         : 64.0 Kbps\nMaximum bit rate                 : 86.8 Kbps\nChannel(s)                       : 2 channels\nChannel positions                : Front: L R\nSampling rate                    : 48.0 KHz \nCompression mode                 : Lossy\nStream size                      : 46.3 MiB (7%)\nLanguage                         : English\n\nSUB:\nThe.Ides.of.March.2011.720p.BRRip.x264.aac.mp4.anoXmous_swe.srt\n &lt;a href=&quot;\nhttp://www.imdb.com/title/tt1124035/&quot; rel=&quot;nofollow&quot; target=&quot;_NEW&quot;&gt;\nhttp://www.imdb.com/title/tt1124035/&lt;/a&gt;\n\n+++++++++ This work very fine with PSP and XBOX :) +++++++++++\t\n","torrent":{"xt":"urn:btih:ada5ae0f09f171ed9d0b2a96245bba37e7903825","amp;dn":"The.Ides.of.March.2011.720p.BRRip.x264.aac.mp4.anoXmous","amp;tr":["udp%3A%2F%2Ftracker.openbittorrent.com%3A80","udp%3A%2F%2Fopen.demonii.com%3A1337","udp%3A%2F%2Ftracker.coppersurfer.tk%3A6969","udp%3A%2F%2Fexodus.desync.com%3A6969"],"infoHash":"ada5ae0f09f171ed9d0b2a96245bba37e7903825","infoHashBuffer":{"type":"Buffer","data":[173,165,174,15,9,241,113,237,157,11,42,150,36,91,186,55,231,144,56,37]},"announce":[],"urlList":[]}}